<?xml version="1.0" standalone="no"?>
<!DOCTYPE svg PUBLIC "-//W3C//DTD SVG 20010904//EN"
 "http://www.w3.org/TR/2001/REC-SVG-20010904/DTD/svg10.dtd">
<svg version="1.0" xmlns="http://www.w3.org/2000/svg"
 width="256.000000pt" height="256.000000pt" viewBox="0 0 256.000000 256.000000"
 preserveAspectRatio="xMidYMid meet">
<metadata>
Created by potrace 1.11, written by Peter Selinger 2001-2013
</metadata>
<g transform="translate(0.000000,256.000000) scale(0.100000,-0.100000)"
fill="#000000" stroke="none">
<path d="M1135 2354 c-250 -40 -440 -137 -620 -319 -154 -155 -230 -288 -286
-501 -33 -125 -34 -377 -2 -504 52 -207 140 -358 298 -515 155 -154 288 -230
501 -286 125 -33 377 -34 504 -2 207 52 358 140 515 298 154 155 230 288 286
501 33 125 34 377 2 504 -52 207 -140 358 -298 515 -213 211 -428 303 -725
310 -80 2 -158 1 -175 -1z m-51 -373 c34 -16 91 -55 128 -86 l68 -55 77 61
c104 83 171 113 250 114 47 0 68 -5 90 -21 77 -57 102 -148 84 -299 -7 -55
-13 -108 -14 -118 -2 -14 17 -25 83 -50 116 -44 203 -106 236 -169 36 -68 4
-175 -68 -230 -44 -33 -141 -82 -207 -104 -45 -14 -52 -20 -47 -38 16 -57 28
-197 22 -246 -9 -73 -51 -148 -96 -172 -21 -11 -55 -18 -86 -18 -67 0 -186 58
-267 130 l-58 52 -42 -39 c-192 -177 -375 -191 -440 -33 -30 72 -30 173 -1
316 6 31 5 32 -47 49 -126 41 -240 119 -276 189 -24 47 -13 128 24 174 45 56
116 102 212 138 98 37 92 25 72 163 -39 268 93 396 303 292z"/>
<path d="M894 1932 c-32 -25 -44 -55 -51 -125 -5 -62 11 -205 26 -220 11 -11
225 24 233 39 5 7 35 45 68 86 33 40 59 76 57 80 -6 17 -137 113 -182 134 -59
28 -121 31 -151 6z"/>
<path d="M1531 1934 c-47 -21 -141 -86 -173 -120 l-26 -29 69 -86 69 -86 111
-17 c61 -10 112 -16 114 -14 8 9 25 144 25 199 0 72 -26 141 -58 158 -28 15
-90 12 -131 -5z"/>
<path d="M1231 1682 c-22 -28 -41 -53 -41 -56 0 -3 43 -6 96 -6 l97 0 -45 52
c-25 29 -49 53 -55 55 -6 2 -29 -18 -52 -45z"/>
<path d="M1094 1494 c-20 -31 -54 -90 -77 -131 l-40 -75 33 -67 c18 -36 51
-96 75 -132 l43 -66 75 -7 c41 -4 111 -4 155 0 l80 7 62 104 c92 154 91 146
43 235 -23 42 -57 101 -77 132 l-36 56 -150 0 -150 0 -36 -56z m245 -79 c54
-27 81 -71 81 -128 0 -92 -54 -147 -142 -147 -78 0 -138 61 -138 140 0 108
109 182 199 135z"/>
<path d="M963 1526 c-34 -6 -65 -14 -68 -18 -6 -6 26 -105 42 -131 4 -7 103
146 103 160 0 4 4 4 -77 -11z"/>
<path d="M1544 1499 c15 -24 37 -63 49 -86 11 -24 24 -43 27 -43 10 0 52 128
46 138 -3 5 -31 13 -62 17 -32 4 -64 9 -72 13 -10 3 -6 -9 12 -39z"/>
<path d="M731 1465 c-88 -34 -170 -93 -194 -138 -16 -31 -17 -42 -7 -71 19
-60 109 -123 238 -167 50 -17 53 -17 59 -1 3 9 21 57 40 105 l34 88 -40 102
c-22 56 -46 103 -53 104 -7 1 -42 -9 -77 -22z"/>
<path d="M1734 1473 c-3 -11 -21 -58 -39 -104 l-34 -84 41 -106 41 -107 54 19
c128 44 224 114 239 176 19 74 -112 179 -271 219 -21 5 -27 2 -31 -13z"/>
<path d="M929 1174 c-21 -55 -39 -107 -39 -114 0 -7 140 -34 145 -28 1 2 -19
41 -46 87 l-48 84 -12 -29z"/>
<path d="M1569 1117 c-26 -45 -45 -84 -43 -86 7 -8 144 22 144 32 0 15 -39
120 -48 129 -4 3 -28 -31 -53 -75z"/>
<path d="M865 978 c-2 -7 -9 -40 -15 -72 -27 -159 4 -274 80 -290 58 -11 167
41 264 126 l39 34 -72 90 -72 89 -87 12 c-48 7 -97 15 -110 18 -13 3 -24 0
-27 -7z"/>
<path d="M1605 974 c-38 -7 -84 -13 -102 -13 -27 -1 -38 -11 -81 -69 -28 -37
-60 -76 -71 -86 -12 -11 -21 -23 -21 -27 0 -4 29 -30 63 -58 164 -130 285
-138 317 -22 20 72 1 281 -25 287 -5 1 -41 -4 -80 -12z"/>
<path d="M1190 942 c0 -8 79 -106 89 -110 6 -2 38 34 90 101 13 16 7 17 -83
17 -53 0 -96 -3 -96 -8z"/>
</g>
</svg>
